<svg xmlns="http://www.w3.org/2000/svg" width="50" height="50" viewBox="0 0 50 50">
    <path fill="#101820" fill-rule="evenodd" d="M41.318 38.993c0 .904-.737 1.643-1.64 1.643H10.938c-.901 0-1.64-.74-1.64-1.643V21.561h3.79a12.066 12.066 0 0 0-.529 3.543c0 6.863 5.743 12.427 12.828 12.427 7.085 0 12.83-5.564 12.83-12.427 0-1.232-.186-2.42-.53-3.543h3.632v17.432zm-15.932-22.37c4.579 0 8.29 3.597 8.29 8.032 0 4.435-3.711 8.032-8.29 8.032-4.577 0-8.288-3.597-8.288-8.032 0-4.435 3.711-8.032 8.288-8.032zm7.533-6.07c0-1.022.835-1.858 1.858-1.858h4.664c1.022 0 1.859.836 1.859 1.857v4.446a1.865 1.865 0 0 1-1.859 1.86h-4.664a1.863 1.863 0 0 1-1.858-1.86v-4.446zM25.001 0C11.192 0 0 11.192 0 25s11.192 25 25 25 25-11.192 25-25S38.808 0 25 0z"/>
</svg>
